G04 EAGLE Gerber RS-274X export*
G75*
%MOMM*%
%FSLAX34Y34*%
%LPD*%
%INTop Copper*%
%IPPOS*%
%AMOC8*
5,1,8,0,0,1.08239X$1,22.5*%
G01*
G04 Define Apertures*
%ADD10C,1.879600*%
%ADD11C,1.450000*%
%ADD12C,1.524000*%
%ADD13C,1.705100*%
%ADD14C,1.260000*%
%ADD15C,1.676400*%
%ADD16R,1.508000X1.508000*%
%ADD17C,1.270000*%
%ADD18C,0.600000*%
%ADD19C,0.756400*%
G36*
X411127Y647503D02*
X408650Y647000D01*
X350530Y647000D01*
X348147Y647464D01*
X346040Y648860D01*
X330469Y664431D01*
X329173Y666305D01*
X328611Y668769D01*
X329054Y671257D01*
X330433Y673375D01*
X332529Y674787D01*
X336468Y676419D01*
X339128Y679079D01*
X341049Y680396D01*
X343517Y680938D01*
X346002Y680475D01*
X348109Y679079D01*
X349907Y677280D01*
X353601Y675751D01*
X356720Y675751D01*
X359103Y675286D01*
X361210Y673891D01*
X366035Y669066D01*
X368608Y668000D01*
X413718Y668000D01*
X416101Y667536D01*
X418208Y666140D01*
X418740Y665609D01*
X420057Y663688D01*
X420599Y661220D01*
X420136Y658735D01*
X418740Y656628D01*
X415567Y653455D01*
X414517Y650920D01*
X413211Y648932D01*
X411127Y647503D01*
G37*
G36*
X91012Y664577D02*
X88552Y663996D01*
X86061Y664419D01*
X83932Y665781D01*
X82503Y667866D01*
X82000Y670342D01*
X82000Y674421D01*
X82391Y676615D01*
X83719Y678765D01*
X85780Y680228D01*
X88249Y680770D01*
X90733Y680307D01*
X92840Y678911D01*
X94879Y676872D01*
X96196Y674951D01*
X96738Y672483D01*
X96275Y669998D01*
X94879Y667891D01*
X92840Y665852D01*
X91012Y664577D01*
G37*
G36*
X91012Y639177D02*
X88552Y638596D01*
X86061Y639019D01*
X83932Y640381D01*
X82503Y642466D01*
X82000Y644942D01*
X82000Y650458D01*
X82391Y652652D01*
X83719Y654802D01*
X85780Y656264D01*
X88249Y656807D01*
X90733Y656343D01*
X92840Y654948D01*
X95598Y652190D01*
X96914Y650270D01*
X97457Y647801D01*
X96993Y645317D01*
X95598Y643210D01*
X92840Y640452D01*
X91012Y639177D01*
G37*
G36*
X352582Y603061D02*
X350113Y602519D01*
X347629Y602982D01*
X345522Y604378D01*
X343965Y605934D01*
X340920Y607196D01*
X338932Y608501D01*
X337503Y610586D01*
X337000Y613062D01*
X337000Y616392D01*
X335934Y618965D01*
X321400Y633500D01*
X320104Y635374D01*
X319542Y637838D01*
X319985Y640326D01*
X321364Y642444D01*
X323460Y643856D01*
X325044Y644513D01*
X327373Y644995D01*
X329857Y644532D01*
X331964Y643136D01*
X341035Y634066D01*
X343608Y633000D01*
X361674Y633000D01*
X363820Y632626D01*
X365981Y631315D01*
X367460Y629266D01*
X368022Y626802D01*
X367578Y624314D01*
X366199Y622196D01*
X364104Y620783D01*
X361538Y619721D01*
X358179Y616362D01*
X356362Y611975D01*
X356362Y610362D01*
X369062Y610362D01*
X369062Y608838D01*
X356357Y608838D01*
X355971Y606673D01*
X354643Y604523D01*
X352582Y603061D01*
G37*
G36*
X91012Y613777D02*
X88552Y613196D01*
X86061Y613619D01*
X83932Y614981D01*
X82503Y617066D01*
X82000Y619542D01*
X82000Y625058D01*
X82391Y627252D01*
X83719Y629402D01*
X85780Y630864D01*
X88249Y631407D01*
X90733Y630943D01*
X92840Y629548D01*
X95598Y626790D01*
X96914Y624870D01*
X97457Y622401D01*
X96993Y619917D01*
X95598Y617810D01*
X92840Y615052D01*
X91012Y613777D01*
G37*
G36*
X312697Y595053D02*
X310220Y594550D01*
X267866Y594550D01*
X265624Y594959D01*
X263485Y596304D01*
X262039Y598377D01*
X261516Y600849D01*
X262000Y603330D01*
X263790Y607653D01*
X263790Y608838D01*
X253238Y608838D01*
X253238Y610362D01*
X263790Y610362D01*
X263790Y611650D01*
X264217Y613939D01*
X265579Y616068D01*
X267663Y617497D01*
X270140Y618000D01*
X299470Y618000D01*
X301853Y617536D01*
X303960Y616140D01*
X314710Y605390D01*
X315985Y603562D01*
X316567Y601102D01*
X316143Y598611D01*
X314781Y596482D01*
X312697Y595053D01*
G37*
G36*
X449220Y434761D02*
X446751Y434218D01*
X444267Y434682D01*
X442160Y436077D01*
X428236Y450001D01*
X426982Y451784D01*
X426878Y452209D01*
X426708Y452240D01*
X424601Y453636D01*
X411943Y466294D01*
X410586Y468308D01*
X410083Y470784D01*
X410083Y554826D01*
X408507Y558630D01*
X387427Y579710D01*
X386111Y581630D01*
X385568Y584099D01*
X386032Y586583D01*
X387427Y588690D01*
X408827Y610090D01*
X410841Y611447D01*
X413317Y611950D01*
X421720Y611950D01*
X423915Y611559D01*
X426065Y610231D01*
X427527Y608170D01*
X428069Y605701D01*
X427606Y603217D01*
X426210Y601110D01*
X424066Y598965D01*
X423000Y596392D01*
X423000Y578608D01*
X424066Y576035D01*
X451140Y548960D01*
X452497Y546947D01*
X453000Y544470D01*
X453000Y486330D01*
X452573Y484041D01*
X451211Y481912D01*
X449127Y480483D01*
X446650Y479980D01*
X445262Y479980D01*
X445262Y459820D01*
X446650Y459820D01*
X448939Y459393D01*
X451068Y458031D01*
X452497Y455947D01*
X453000Y453470D01*
X453000Y440567D01*
X452609Y438373D01*
X451281Y436223D01*
X449220Y434761D01*
G37*
%LPC*%
G36*
X434420Y470662D02*
X443738Y470662D01*
X443738Y479980D01*
X436455Y479980D01*
X435521Y479593D01*
X434807Y478879D01*
X434420Y477945D01*
X434420Y470662D01*
G37*
G36*
X436455Y459820D02*
X443738Y459820D01*
X443738Y469138D01*
X434420Y469138D01*
X434420Y461855D01*
X434958Y460556D01*
X434995Y460389D01*
X435156Y460358D01*
X436455Y459820D01*
G37*
%LPD*%
G36*
X91012Y588377D02*
X88552Y587796D01*
X86061Y588219D01*
X83932Y589581D01*
X82503Y591666D01*
X82000Y594142D01*
X82000Y599658D01*
X82391Y601852D01*
X83719Y604002D01*
X85780Y605464D01*
X88249Y606007D01*
X90733Y605543D01*
X92840Y604148D01*
X95598Y601390D01*
X96914Y599470D01*
X97457Y597001D01*
X96993Y594517D01*
X95598Y592410D01*
X92840Y589652D01*
X91012Y588377D01*
G37*
G36*
X91012Y562977D02*
X88552Y562396D01*
X86061Y562819D01*
X83932Y564181D01*
X82503Y566266D01*
X82000Y568742D01*
X82000Y574258D01*
X82391Y576452D01*
X83719Y578602D01*
X85780Y580064D01*
X88249Y580607D01*
X90733Y580143D01*
X92840Y578748D01*
X95598Y575990D01*
X96914Y574070D01*
X97457Y571601D01*
X96993Y569117D01*
X95598Y567010D01*
X92840Y564252D01*
X91012Y562977D01*
G37*
G36*
X91012Y537577D02*
X88552Y536996D01*
X86061Y537419D01*
X83932Y538781D01*
X82503Y540866D01*
X82000Y543342D01*
X82000Y548858D01*
X82391Y551052D01*
X83719Y553202D01*
X85780Y554664D01*
X88249Y555207D01*
X90733Y554743D01*
X92840Y553348D01*
X95598Y550590D01*
X96914Y548670D01*
X97457Y546201D01*
X96993Y543717D01*
X95598Y541610D01*
X92840Y538852D01*
X91012Y537577D01*
G37*
G36*
X118794Y154272D02*
X116330Y153710D01*
X113842Y154154D01*
X111724Y155532D01*
X110312Y157628D01*
X110120Y158093D01*
X107602Y160610D01*
X106286Y162530D01*
X105743Y164999D01*
X106207Y167483D01*
X107602Y169590D01*
X110120Y172107D01*
X111650Y175801D01*
X111650Y179799D01*
X110120Y183493D01*
X107602Y186010D01*
X106286Y187930D01*
X105743Y190399D01*
X106207Y192883D01*
X107602Y194990D01*
X110120Y197507D01*
X111650Y201201D01*
X111650Y205199D01*
X110120Y208893D01*
X107602Y211410D01*
X106286Y213330D01*
X105743Y215799D01*
X106207Y218283D01*
X107602Y220390D01*
X110120Y222907D01*
X111271Y225688D01*
X112648Y227748D01*
X140934Y256035D01*
X142000Y258608D01*
X142000Y359470D01*
X142464Y361853D01*
X143860Y363960D01*
X158548Y378649D01*
X160423Y379945D01*
X162887Y380507D01*
X165375Y380063D01*
X167493Y378684D01*
X168905Y376589D01*
X169402Y375389D01*
X171282Y373509D01*
X172599Y371588D01*
X173141Y369120D01*
X172678Y366635D01*
X171282Y364528D01*
X168541Y361787D01*
X166878Y357773D01*
X166878Y356362D01*
X188722Y356362D01*
X188722Y357773D01*
X187059Y361787D01*
X184318Y364528D01*
X183001Y366449D01*
X182459Y368917D01*
X182922Y371402D01*
X184318Y373509D01*
X186198Y375389D01*
X187706Y379030D01*
X187706Y382970D01*
X186198Y386611D01*
X183599Y389210D01*
X182283Y391130D01*
X181740Y393599D01*
X182204Y396083D01*
X183599Y398190D01*
X186198Y400789D01*
X187706Y404430D01*
X187706Y408370D01*
X186198Y412011D01*
X183599Y414610D01*
X182283Y416530D01*
X181740Y418999D01*
X182204Y421483D01*
X183599Y423590D01*
X186198Y426189D01*
X187706Y429830D01*
X187706Y433770D01*
X186198Y437411D01*
X183599Y440010D01*
X182283Y441930D01*
X181740Y444399D01*
X182204Y446883D01*
X183599Y448990D01*
X186198Y451589D01*
X187706Y455230D01*
X187706Y459170D01*
X186198Y462811D01*
X184318Y464691D01*
X183001Y466612D01*
X182459Y469080D01*
X182922Y471565D01*
X184318Y473672D01*
X187059Y476413D01*
X188722Y480427D01*
X188722Y481838D01*
X166878Y481838D01*
X166878Y480427D01*
X168541Y476413D01*
X171282Y473672D01*
X172599Y471751D01*
X173141Y469283D01*
X172678Y466798D01*
X171282Y464691D01*
X169402Y462811D01*
X167894Y459170D01*
X167894Y457336D01*
X167503Y455141D01*
X166175Y452991D01*
X164114Y451529D01*
X161645Y450987D01*
X159161Y451450D01*
X157054Y452846D01*
X138965Y470934D01*
X136392Y472000D01*
X134700Y472000D01*
X132410Y472427D01*
X130282Y473789D01*
X128852Y475873D01*
X128350Y478350D01*
X128350Y480959D01*
X126774Y484763D01*
X120727Y490810D01*
X119411Y492730D01*
X118868Y495199D01*
X119332Y497683D01*
X120727Y499790D01*
X126774Y505837D01*
X128350Y509641D01*
X128350Y526421D01*
X128741Y528615D01*
X130069Y530765D01*
X132130Y532228D01*
X134598Y532770D01*
X137083Y532307D01*
X139190Y530911D01*
X141035Y529066D01*
X143608Y528000D01*
X146392Y528000D01*
X150070Y529523D01*
X152449Y530006D01*
X154930Y529523D01*
X158608Y528000D01*
X161392Y528000D01*
X162987Y528660D01*
X165316Y529143D01*
X167800Y528680D01*
X169907Y527284D01*
X172001Y525190D01*
X173317Y523270D01*
X173860Y520801D01*
X173396Y518317D01*
X172001Y516210D01*
X169402Y513611D01*
X167894Y509970D01*
X167894Y506030D01*
X169402Y502389D01*
X171282Y500509D01*
X172599Y498588D01*
X173141Y496120D01*
X172678Y493635D01*
X171282Y491528D01*
X168541Y488787D01*
X166878Y484773D01*
X166878Y483362D01*
X188722Y483362D01*
X188722Y484773D01*
X187059Y488787D01*
X184318Y491528D01*
X183001Y493449D01*
X182459Y495917D01*
X182922Y498402D01*
X184318Y500509D01*
X186198Y502389D01*
X187706Y506030D01*
X187706Y509970D01*
X186198Y513611D01*
X183599Y516210D01*
X182283Y518130D01*
X181740Y520599D01*
X182204Y523083D01*
X183599Y525190D01*
X186198Y527789D01*
X187706Y531430D01*
X187706Y535370D01*
X186198Y539011D01*
X184544Y540665D01*
X183228Y542585D01*
X182685Y545054D01*
X183149Y547538D01*
X184544Y549645D01*
X188010Y553110D01*
X189930Y554427D01*
X192399Y554969D01*
X194883Y554506D01*
X196990Y553110D01*
X276035Y474066D01*
X276540Y473856D01*
X278455Y472621D01*
X279917Y470559D01*
X280459Y468091D01*
X279996Y465607D01*
X278600Y463500D01*
X209066Y393965D01*
X208000Y391392D01*
X208000Y273608D01*
X209066Y271035D01*
X233136Y246964D01*
X234473Y244998D01*
X234996Y242525D01*
X234513Y240044D01*
X233000Y236392D01*
X233000Y233608D01*
X234066Y231035D01*
X236254Y228847D01*
X237511Y228050D01*
X238373Y226874D01*
X239283Y227497D01*
X241760Y228000D01*
X291392Y228000D01*
X293965Y229066D01*
X306040Y241140D01*
X308053Y242497D01*
X310530Y243000D01*
X340239Y243000D01*
X342481Y242591D01*
X344621Y241246D01*
X346067Y239173D01*
X346589Y236701D01*
X346106Y234220D01*
X344678Y230773D01*
X344678Y229362D01*
X356362Y229362D01*
X356362Y227838D01*
X344678Y227838D01*
X344678Y226427D01*
X346530Y221957D01*
X347189Y221012D01*
X347770Y218552D01*
X347347Y216061D01*
X345985Y213932D01*
X343900Y212503D01*
X341424Y212000D01*
X245530Y212000D01*
X243147Y212464D01*
X241040Y213860D01*
X238746Y216153D01*
X237489Y216950D01*
X236627Y218127D01*
X235717Y217503D01*
X233240Y217000D01*
X223608Y217000D01*
X221035Y215934D01*
X197110Y192010D01*
X195328Y190756D01*
X192873Y190155D01*
X190378Y190559D01*
X188239Y191904D01*
X186793Y193977D01*
X186270Y196449D01*
X186753Y198930D01*
X187706Y201230D01*
X187706Y205170D01*
X186198Y208811D01*
X184318Y210691D01*
X183001Y212612D01*
X182459Y215080D01*
X182922Y217565D01*
X184318Y219672D01*
X187059Y222413D01*
X188722Y226427D01*
X188722Y227838D01*
X166878Y227838D01*
X166878Y226427D01*
X168541Y222413D01*
X171282Y219672D01*
X172599Y217751D01*
X173141Y215283D01*
X172678Y212798D01*
X171282Y210691D01*
X169402Y208811D01*
X167801Y204946D01*
X167430Y203041D01*
X166034Y200934D01*
X120669Y155568D01*
X118794Y154272D01*
G37*
%LPC*%
G36*
X166878Y229362D02*
X188722Y229362D01*
X188722Y230773D01*
X187059Y234787D01*
X184318Y237528D01*
X183001Y239449D01*
X182459Y241917D01*
X182922Y244402D01*
X184318Y246509D01*
X186198Y248389D01*
X187706Y252030D01*
X187706Y255970D01*
X186198Y259611D01*
X183599Y262210D01*
X182283Y264130D01*
X181740Y266599D01*
X182204Y269083D01*
X183599Y271190D01*
X186198Y273789D01*
X187706Y277430D01*
X187706Y281370D01*
X186198Y285011D01*
X183599Y287610D01*
X182283Y289530D01*
X181740Y291999D01*
X182204Y294483D01*
X183599Y296590D01*
X186198Y299189D01*
X187706Y302830D01*
X187706Y306770D01*
X186198Y310411D01*
X183599Y313010D01*
X182283Y314930D01*
X181740Y317399D01*
X182204Y319883D01*
X183599Y321990D01*
X186198Y324589D01*
X187706Y328230D01*
X187706Y332170D01*
X186198Y335811D01*
X184318Y337691D01*
X183001Y339612D01*
X182459Y342080D01*
X182922Y344565D01*
X184318Y346672D01*
X187059Y349413D01*
X188722Y353427D01*
X188722Y354838D01*
X166878Y354838D01*
X166878Y353427D01*
X168541Y349413D01*
X171282Y346672D01*
X172599Y344751D01*
X173141Y342283D01*
X172678Y339798D01*
X171282Y337691D01*
X169402Y335811D01*
X167894Y332170D01*
X167894Y328230D01*
X169402Y324589D01*
X172001Y321990D01*
X173317Y320070D01*
X173860Y317601D01*
X173396Y315117D01*
X172001Y313010D01*
X169402Y310411D01*
X167894Y306770D01*
X167894Y302830D01*
X169402Y299189D01*
X172001Y296590D01*
X173317Y294670D01*
X173860Y292201D01*
X173396Y289717D01*
X172001Y287610D01*
X169402Y285011D01*
X167894Y281370D01*
X167894Y277430D01*
X169402Y273789D01*
X172001Y271190D01*
X173317Y269270D01*
X173860Y266801D01*
X173396Y264317D01*
X172001Y262210D01*
X169402Y259611D01*
X167894Y255970D01*
X167894Y252030D01*
X169402Y248389D01*
X171282Y246509D01*
X172599Y244588D01*
X173141Y242120D01*
X172678Y239635D01*
X171282Y237528D01*
X168541Y234787D01*
X166878Y230773D01*
X166878Y229362D01*
G37*
%LPD*%
G36*
X91012Y499902D02*
X88552Y499321D01*
X86061Y499744D01*
X83932Y501106D01*
X82503Y503191D01*
X82000Y505667D01*
X82000Y523458D01*
X82391Y525652D01*
X83719Y527802D01*
X85780Y529264D01*
X88249Y529807D01*
X90733Y529343D01*
X92840Y527948D01*
X95907Y524880D01*
X99601Y523351D01*
X99683Y523351D01*
X101878Y522959D01*
X104028Y521631D01*
X105490Y519570D01*
X106032Y517102D01*
X105569Y514617D01*
X104173Y512510D01*
X92840Y501177D01*
X91012Y499902D01*
G37*
G36*
X91012Y475514D02*
X88552Y474932D01*
X86061Y475356D01*
X83932Y476718D01*
X82503Y478803D01*
X82000Y481279D01*
X82000Y484933D01*
X82391Y487127D01*
X83719Y489277D01*
X85780Y490740D01*
X88249Y491282D01*
X90733Y490819D01*
X92840Y489423D01*
X94667Y487596D01*
X95984Y485676D01*
X96526Y483207D01*
X96063Y480723D01*
X94667Y478616D01*
X92840Y476789D01*
X91012Y475514D01*
G37*
G36*
X299956Y255487D02*
X297627Y255005D01*
X295143Y255468D01*
X293036Y256864D01*
X233860Y316040D01*
X232503Y318053D01*
X232000Y320530D01*
X232000Y341392D01*
X230934Y343965D01*
X228965Y345934D01*
X225920Y347196D01*
X223932Y348501D01*
X222503Y350586D01*
X222000Y353062D01*
X222000Y384470D01*
X222464Y386853D01*
X223860Y388960D01*
X263500Y428600D01*
X265374Y429896D01*
X267838Y430458D01*
X270326Y430015D01*
X272444Y428636D01*
X273856Y426540D01*
X274066Y426035D01*
X276035Y424066D01*
X278608Y423000D01*
X281392Y423000D01*
X283965Y424066D01*
X336837Y476937D01*
X338757Y478254D01*
X341226Y478796D01*
X343710Y478333D01*
X345817Y476937D01*
X349082Y473672D01*
X350399Y471751D01*
X350941Y469283D01*
X350478Y466798D01*
X349082Y464691D01*
X347202Y462811D01*
X345694Y459170D01*
X345694Y455230D01*
X347202Y451589D01*
X349801Y448990D01*
X351117Y447070D01*
X351660Y444601D01*
X351196Y442117D01*
X349801Y440010D01*
X347202Y437411D01*
X345694Y433770D01*
X345694Y429830D01*
X347202Y426189D01*
X349801Y423590D01*
X351117Y421670D01*
X351660Y419201D01*
X351196Y416717D01*
X349801Y414610D01*
X347202Y412011D01*
X345694Y408370D01*
X345694Y404430D01*
X347202Y400789D01*
X349801Y398190D01*
X351117Y396270D01*
X351660Y393801D01*
X351196Y391317D01*
X349801Y389210D01*
X347202Y386611D01*
X345694Y382970D01*
X345694Y379030D01*
X347202Y375389D01*
X349082Y373509D01*
X350399Y371588D01*
X350941Y369120D01*
X350478Y366635D01*
X349082Y364528D01*
X346341Y361787D01*
X344678Y357773D01*
X344678Y356362D01*
X356362Y356362D01*
X356362Y354838D01*
X344678Y354838D01*
X344678Y353427D01*
X346341Y349413D01*
X349082Y346672D01*
X350399Y344751D01*
X350941Y342283D01*
X350478Y339798D01*
X349082Y337691D01*
X347202Y335811D01*
X345694Y332170D01*
X345694Y328230D01*
X347202Y324589D01*
X349801Y321990D01*
X351117Y320070D01*
X351660Y317601D01*
X351196Y315117D01*
X349801Y313010D01*
X347202Y310411D01*
X345694Y306770D01*
X345694Y302830D01*
X347202Y299189D01*
X349801Y296590D01*
X351117Y294670D01*
X351660Y292201D01*
X351196Y289717D01*
X349801Y287610D01*
X347202Y285011D01*
X345694Y281370D01*
X345694Y277430D01*
X347202Y273789D01*
X349801Y271190D01*
X351117Y269270D01*
X351660Y266801D01*
X351196Y264317D01*
X349801Y262210D01*
X346451Y258860D01*
X344437Y257503D01*
X341961Y257000D01*
X303608Y257000D01*
X299956Y255487D01*
G37*
G36*
X344828Y54616D02*
X342364Y54054D01*
X339876Y54497D01*
X337758Y55876D01*
X336346Y57972D01*
X335934Y58965D01*
X238860Y156040D01*
X237503Y158053D01*
X237000Y160530D01*
X237000Y191650D01*
X237427Y193939D01*
X238789Y196068D01*
X240873Y197497D01*
X243350Y198000D01*
X256938Y198000D01*
X259274Y197555D01*
X261392Y196176D01*
X262804Y194080D01*
X264066Y191035D01*
X331035Y124066D01*
X333608Y123000D01*
X342961Y123000D01*
X345344Y122536D01*
X347451Y121140D01*
X349082Y119509D01*
X350399Y117588D01*
X350941Y115120D01*
X350478Y112635D01*
X349082Y110528D01*
X346341Y107787D01*
X344678Y103773D01*
X344678Y102362D01*
X366522Y102362D01*
X366522Y103773D01*
X364859Y107787D01*
X362118Y110528D01*
X360801Y112449D01*
X360259Y114917D01*
X360722Y117402D01*
X362118Y119509D01*
X363998Y121389D01*
X365506Y125030D01*
X365506Y128970D01*
X363998Y132611D01*
X361399Y135210D01*
X360083Y137130D01*
X359540Y139599D01*
X360004Y142083D01*
X361399Y144190D01*
X363998Y146789D01*
X365506Y150430D01*
X365506Y154370D01*
X363998Y158011D01*
X361399Y160610D01*
X360083Y162530D01*
X359540Y164999D01*
X360004Y167483D01*
X361399Y169590D01*
X364059Y172250D01*
X365933Y173546D01*
X368397Y174108D01*
X370885Y173664D01*
X373003Y172286D01*
X373392Y171708D01*
X376035Y169066D01*
X378608Y168000D01*
X381392Y168000D01*
X383965Y169066D01*
X385934Y171035D01*
X387000Y173608D01*
X387000Y446633D01*
X387391Y448827D01*
X388719Y450977D01*
X390780Y452440D01*
X393249Y452982D01*
X395733Y452518D01*
X397840Y451123D01*
X432290Y416673D01*
X433647Y414659D01*
X434150Y412183D01*
X434150Y313541D01*
X435726Y309737D01*
X438292Y307171D01*
X439608Y305251D01*
X440151Y302782D01*
X439687Y300298D01*
X438292Y298191D01*
X414066Y273965D01*
X413000Y271392D01*
X413000Y100530D01*
X412536Y98147D01*
X411140Y96040D01*
X372245Y57144D01*
X370324Y55828D01*
X367856Y55285D01*
X365372Y55749D01*
X363265Y57144D01*
X361399Y59010D01*
X360083Y60930D01*
X359540Y63399D01*
X360004Y65883D01*
X361399Y67990D01*
X363998Y70589D01*
X365506Y74230D01*
X365506Y78170D01*
X363998Y81811D01*
X362118Y83691D01*
X360801Y85612D01*
X360259Y88080D01*
X360722Y90565D01*
X362118Y92672D01*
X364859Y95413D01*
X366522Y99427D01*
X366522Y100838D01*
X344678Y100838D01*
X344678Y99427D01*
X346341Y95413D01*
X349082Y92672D01*
X350399Y90751D01*
X350941Y88283D01*
X350478Y85798D01*
X349082Y83691D01*
X347202Y81811D01*
X345694Y78170D01*
X345694Y74230D01*
X347202Y70589D01*
X349801Y67990D01*
X351117Y66070D01*
X351660Y63601D01*
X351196Y61117D01*
X349801Y59010D01*
X346703Y55912D01*
X344828Y54616D01*
G37*
G36*
X369220Y336333D02*
X366751Y335790D01*
X364267Y336254D01*
X362160Y337649D01*
X362118Y337691D01*
X360801Y339612D01*
X360259Y342080D01*
X360722Y344565D01*
X362118Y346672D01*
X362160Y346714D01*
X363988Y347989D01*
X366448Y348570D01*
X368939Y348147D01*
X371068Y346785D01*
X372497Y344700D01*
X373000Y342224D01*
X373000Y342139D01*
X372609Y339945D01*
X371281Y337795D01*
X369220Y336333D01*
G37*
G36*
X369220Y310933D02*
X366751Y310390D01*
X364267Y310854D01*
X362160Y312249D01*
X361399Y313010D01*
X360083Y314930D01*
X359540Y317399D01*
X360004Y319883D01*
X361399Y321990D01*
X362160Y322751D01*
X363988Y324026D01*
X366448Y324607D01*
X368939Y324184D01*
X371068Y322822D01*
X372497Y320737D01*
X373000Y318261D01*
X373000Y316739D01*
X372609Y314545D01*
X371281Y312395D01*
X369220Y310933D01*
G37*
G36*
X90001Y180641D02*
X87533Y180099D01*
X85048Y180562D01*
X82941Y181958D01*
X63860Y201040D01*
X62503Y203053D01*
X62000Y205530D01*
X62000Y312770D01*
X62391Y314965D01*
X63719Y317115D01*
X65780Y318577D01*
X68249Y319119D01*
X70733Y318656D01*
X72840Y317260D01*
X94342Y295759D01*
X95658Y293838D01*
X96201Y291370D01*
X95737Y288886D01*
X94342Y286779D01*
X92826Y285263D01*
X91250Y281459D01*
X91250Y277341D01*
X92826Y273537D01*
X94667Y271696D01*
X95984Y269776D01*
X96526Y267307D01*
X96063Y264823D01*
X94667Y262716D01*
X92219Y260268D01*
X90535Y256201D01*
X90535Y254762D01*
X102362Y254762D01*
X102362Y253238D01*
X90535Y253238D01*
X90535Y251799D01*
X92219Y247732D01*
X94879Y245072D01*
X96196Y243151D01*
X96738Y240683D01*
X96275Y238198D01*
X94879Y236091D01*
X93080Y234293D01*
X91551Y230599D01*
X91551Y226601D01*
X93080Y222907D01*
X95598Y220390D01*
X96914Y218470D01*
X97457Y216001D01*
X96993Y213517D01*
X95598Y211410D01*
X93080Y208893D01*
X91551Y205199D01*
X91551Y201201D01*
X93080Y197507D01*
X95598Y194990D01*
X96914Y193070D01*
X97457Y190601D01*
X96993Y188117D01*
X95598Y186010D01*
X92738Y183150D01*
X92063Y182104D01*
X90001Y180641D01*
G37*
G36*
X369220Y285533D02*
X366751Y284990D01*
X364267Y285454D01*
X362160Y286849D01*
X361399Y287610D01*
X360083Y289530D01*
X359540Y291999D01*
X360004Y294483D01*
X361399Y296590D01*
X362160Y297351D01*
X363988Y298626D01*
X366448Y299207D01*
X368939Y298784D01*
X371068Y297422D01*
X372497Y295337D01*
X373000Y292861D01*
X373000Y291339D01*
X372609Y289145D01*
X371281Y286995D01*
X369220Y285533D01*
G37*
G36*
X476839Y51273D02*
X474469Y50394D01*
X471944Y50509D01*
X469665Y51599D01*
X467991Y53493D01*
X466233Y56537D01*
X461177Y61593D01*
X454983Y65169D01*
X448076Y67020D01*
X440924Y67020D01*
X434017Y65169D01*
X430956Y63402D01*
X428085Y62559D01*
X425587Y62943D01*
X423436Y64270D01*
X421974Y66332D01*
X421432Y68800D01*
X421895Y71285D01*
X423291Y73392D01*
X435934Y86035D01*
X437101Y88851D01*
X437427Y90599D01*
X438789Y92728D01*
X440873Y94157D01*
X443350Y94660D01*
X443738Y94660D01*
X443738Y112340D01*
X443350Y112340D01*
X441061Y112767D01*
X438932Y114129D01*
X437503Y116213D01*
X437000Y118690D01*
X437000Y161726D01*
X437427Y164015D01*
X438789Y166144D01*
X440873Y167573D01*
X443350Y168076D01*
X446056Y168076D01*
X448932Y169267D01*
X451133Y171468D01*
X452324Y174344D01*
X452324Y178383D01*
X452076Y180199D01*
X452145Y180762D01*
X452000Y181822D01*
X452000Y238406D01*
X452179Y239901D01*
X452324Y240501D01*
X452324Y244756D01*
X451133Y247632D01*
X448932Y249833D01*
X446056Y251024D01*
X443350Y251024D01*
X441061Y251451D01*
X438932Y252813D01*
X437503Y254897D01*
X437000Y257374D01*
X437000Y259470D01*
X437464Y261853D01*
X438860Y263960D01*
X469000Y294100D01*
X470828Y295375D01*
X473288Y295957D01*
X475779Y295533D01*
X477908Y294171D01*
X479337Y292087D01*
X479840Y289610D01*
X479840Y56668D01*
X479695Y55319D01*
X478678Y53006D01*
X476839Y51273D01*
G37*
%LPC*%
G36*
X445262Y104262D02*
X453340Y104262D01*
X453340Y105258D01*
X451994Y108507D01*
X449507Y110994D01*
X446258Y112340D01*
X445262Y112340D01*
X445262Y104262D01*
G37*
G36*
X445262Y94660D02*
X446258Y94660D01*
X449507Y96006D01*
X451994Y98493D01*
X453340Y101742D01*
X453340Y102738D01*
X445262Y102738D01*
X445262Y94660D01*
G37*
%LPD*%
G36*
X369220Y260133D02*
X366751Y259590D01*
X364267Y260054D01*
X362160Y261449D01*
X361399Y262210D01*
X360083Y264130D01*
X359540Y266599D01*
X360004Y269083D01*
X361399Y271190D01*
X362160Y271951D01*
X363988Y273226D01*
X366448Y273807D01*
X368939Y273384D01*
X371068Y272022D01*
X372497Y269937D01*
X373000Y267461D01*
X373000Y265939D01*
X372609Y263745D01*
X371281Y261595D01*
X369220Y260133D01*
G37*
G36*
X369220Y236169D02*
X366751Y235627D01*
X364267Y236091D01*
X362160Y237486D01*
X362118Y237528D01*
X360801Y239449D01*
X360259Y241917D01*
X360722Y244402D01*
X362118Y246509D01*
X362160Y246551D01*
X363988Y247826D01*
X366448Y248407D01*
X368939Y247984D01*
X371068Y246622D01*
X372497Y244537D01*
X373000Y242061D01*
X373000Y241976D01*
X372609Y239782D01*
X371281Y237632D01*
X369220Y236169D01*
G37*
G36*
X369220Y209333D02*
X366751Y208790D01*
X364267Y209254D01*
X362160Y210649D01*
X362118Y210691D01*
X360801Y212612D01*
X360259Y215080D01*
X360722Y217565D01*
X362118Y219672D01*
X362160Y219714D01*
X363988Y220989D01*
X366448Y221570D01*
X368939Y221147D01*
X371068Y219785D01*
X372497Y217700D01*
X373000Y215224D01*
X373000Y215139D01*
X372609Y212945D01*
X371281Y210795D01*
X369220Y209333D01*
G37*
G36*
X369220Y183933D02*
X366751Y183390D01*
X364267Y183854D01*
X362160Y185249D01*
X361399Y186010D01*
X360083Y187930D01*
X359540Y190399D01*
X360004Y192883D01*
X361399Y194990D01*
X362160Y195751D01*
X363988Y197026D01*
X366448Y197607D01*
X368939Y197184D01*
X371068Y195822D01*
X372497Y193737D01*
X373000Y191261D01*
X373000Y189739D01*
X372609Y187545D01*
X371281Y185395D01*
X369220Y183933D01*
G37*
D10*
X368300Y584200D03*
X368300Y609600D03*
D11*
X228600Y609600D03*
X254000Y609600D03*
D12*
X424180Y622300D02*
X439420Y622300D01*
X439420Y647700D02*
X424180Y647700D01*
X424180Y673100D02*
X439420Y673100D01*
D13*
X101600Y711200D03*
X101600Y685800D03*
X101600Y660400D03*
X101600Y635000D03*
X101600Y609600D03*
X101600Y584200D03*
X101600Y558800D03*
X101600Y533400D03*
X101600Y279400D03*
X101600Y254000D03*
X101600Y228600D03*
X101600Y203200D03*
X101600Y177800D03*
X101600Y152400D03*
X101600Y127000D03*
X101600Y101600D03*
X101600Y495300D03*
X101600Y469900D03*
X101600Y444500D03*
X101600Y419100D03*
X101600Y393700D03*
X101600Y368300D03*
X101600Y342900D03*
X101600Y317500D03*
D14*
X444500Y243200D03*
X444500Y315600D03*
X444500Y103500D03*
X444500Y175900D03*
D15*
X355600Y50800D03*
X355600Y76200D03*
X355600Y101600D03*
X355600Y127000D03*
X355600Y152400D03*
X355600Y177800D03*
X355600Y203200D03*
X355600Y228600D03*
X355600Y254000D03*
X355600Y279400D03*
X355600Y304800D03*
X355600Y330200D03*
X355600Y355600D03*
X355600Y381000D03*
X355600Y406400D03*
X355600Y431800D03*
X355600Y457200D03*
X355600Y482600D03*
X355600Y508000D03*
X355600Y533400D03*
X177800Y533400D03*
X177800Y508000D03*
X177800Y482600D03*
X177800Y457200D03*
X177800Y431800D03*
X177800Y406400D03*
X177800Y381000D03*
X177800Y355600D03*
X177800Y330200D03*
X177800Y304800D03*
X177800Y279400D03*
X177800Y254000D03*
X177800Y228600D03*
X177800Y203200D03*
X177800Y177800D03*
X177800Y152400D03*
X177800Y127000D03*
X177800Y101600D03*
X177800Y76200D03*
X177800Y50800D03*
D16*
X444500Y419100D03*
X444500Y469900D03*
D13*
X355600Y685800D03*
X330200Y685800D03*
X304800Y685800D03*
X279400Y685800D03*
X254000Y685800D03*
X228600Y685800D03*
X203200Y685800D03*
X177800Y685800D03*
D17*
X101600Y711200D02*
X228600Y584200D01*
X368300Y584200D01*
X399733Y463867D02*
X444500Y419100D01*
X399733Y463867D02*
X399733Y552767D01*
X368300Y584200D01*
X444500Y419100D02*
X444500Y315600D01*
X368300Y584200D02*
X406400Y622300D01*
X431800Y622300D01*
X118000Y295800D02*
X101600Y279400D01*
X118000Y295800D02*
X118000Y478900D01*
X101600Y495300D01*
X118000Y694800D02*
X101600Y711200D01*
X118000Y694800D02*
X118000Y511700D01*
X101600Y495300D01*
D18*
X370000Y115000D02*
X360000Y105000D01*
X370000Y115000D02*
X370000Y215000D01*
X360000Y225000D01*
X360000Y105000D02*
X355600Y101600D01*
X360000Y225000D02*
X355600Y228600D01*
X340000Y465000D02*
X355000Y480000D01*
X340000Y465000D02*
X340000Y375000D01*
X355000Y360000D01*
X355000Y480000D02*
X355600Y482600D01*
X355000Y360000D02*
X355600Y355600D01*
X360000Y240000D02*
X360000Y230000D01*
X360000Y240000D02*
X370000Y250000D01*
X370000Y345000D01*
X360000Y355000D01*
X360000Y230000D02*
X355600Y228600D01*
X360000Y355000D02*
X355600Y355600D01*
X295000Y610000D02*
X255000Y610000D01*
X254000Y609600D01*
X370000Y650000D02*
X430000Y650000D01*
X370000Y650000D02*
X335000Y685000D01*
X430000Y650000D02*
X431800Y647700D01*
X335000Y685000D02*
X330200Y685800D01*
X100000Y470000D02*
X85000Y485000D01*
X85000Y670000D01*
X100000Y685000D01*
X100000Y470000D02*
X101600Y469900D01*
X100000Y685000D02*
X101600Y685800D01*
X180000Y480000D02*
X195000Y465000D01*
X195000Y375000D01*
X180000Y360000D01*
X180000Y480000D02*
X177800Y482600D01*
X180000Y360000D02*
X177800Y355600D01*
X175000Y480000D02*
X135000Y480000D01*
X175000Y480000D02*
X177800Y482600D01*
X180000Y225000D02*
X355000Y225000D01*
X355600Y228600D01*
X180000Y225000D02*
X177800Y228600D01*
D19*
X295000Y610000D03*
X135000Y480000D03*
X419100Y571500D03*
X406400Y419100D03*
X469900Y254000D03*
X381000Y88900D03*
X215900Y508000D03*
D18*
X445000Y240000D02*
X445000Y180000D01*
X444500Y175900D01*
X445000Y240000D02*
X444500Y243200D01*
X320000Y650000D02*
X270000Y650000D01*
X370000Y675000D02*
X430000Y675000D01*
X370000Y675000D02*
X360000Y685000D01*
X430000Y675000D02*
X431800Y673100D01*
X360000Y685000D02*
X355600Y685800D01*
X105000Y150000D02*
X175000Y80000D01*
X177800Y76200D01*
X105000Y150000D02*
X101600Y152400D01*
X65000Y350000D02*
X65000Y560000D01*
X65000Y350000D02*
X55000Y340000D01*
X55000Y200000D01*
X100000Y155000D01*
X101600Y152400D01*
X345000Y690000D02*
X355000Y690000D01*
X345000Y690000D02*
X270000Y765000D01*
X105000Y765000D01*
X65000Y725000D01*
X65000Y560000D01*
X355600Y685800D02*
X355000Y690000D01*
D19*
X270000Y650000D03*
X320000Y650000D03*
X65000Y560000D03*
D18*
X65000Y335000D02*
X100000Y300000D01*
D19*
X100000Y300000D03*
X65000Y335000D03*
D18*
X165000Y435000D02*
X175000Y435000D01*
X165000Y435000D02*
X135000Y465000D01*
X175000Y435000D02*
X177800Y431800D01*
D19*
X135000Y465000D03*
D18*
X175000Y405000D02*
X135000Y365000D01*
X135000Y260000D01*
X105000Y230000D01*
X175000Y405000D02*
X177800Y406400D01*
X105000Y230000D02*
X101600Y228600D01*
X335000Y130000D02*
X355000Y130000D01*
X335000Y130000D02*
X270000Y195000D01*
X270000Y505000D02*
X215000Y560000D01*
X185000Y590000D02*
X150000Y590000D01*
X355000Y130000D02*
X355600Y127000D01*
D19*
X270000Y195000D03*
X270000Y505000D03*
X215000Y560000D03*
X185000Y590000D03*
X150000Y590000D03*
D18*
X200000Y560000D02*
X280000Y480000D01*
X185000Y575000D02*
X145000Y535000D01*
D19*
X280000Y480000D03*
X200000Y560000D03*
X185000Y575000D03*
X145000Y535000D03*
D18*
X305000Y250000D02*
X355000Y250000D01*
X305000Y250000D02*
X290000Y235000D01*
X240000Y235000D01*
X355000Y250000D02*
X355600Y254000D01*
D19*
X240000Y235000D03*
D18*
X380000Y175000D02*
X380000Y550000D01*
D19*
X380000Y175000D03*
X380000Y550000D03*
D18*
X355000Y205000D02*
X240000Y205000D01*
X235000Y210000D01*
X225000Y210000D01*
X195000Y180000D01*
X195000Y45000D01*
X185000Y35000D01*
X145000Y35000D01*
X75000Y105000D01*
X355600Y203200D02*
X355000Y205000D01*
D19*
X75000Y105000D03*
D18*
X330000Y615000D02*
X310000Y635000D01*
X215000Y635000D01*
X185000Y605000D02*
X150000Y605000D01*
X135000Y590000D01*
D19*
X330000Y615000D03*
X215000Y635000D03*
X185000Y605000D03*
X135000Y590000D03*
D18*
X360000Y435000D02*
X370000Y445000D01*
X370000Y540000D01*
X340000Y570000D01*
X195000Y570000D01*
X160000Y535000D01*
X355600Y431800D02*
X360000Y435000D01*
D19*
X160000Y535000D03*
D18*
X330000Y600000D02*
X340000Y600000D01*
X330000Y600000D02*
X305000Y625000D01*
X210000Y625000D01*
X110000Y725000D01*
X95000Y725000D01*
X75000Y705000D01*
X75000Y345000D01*
X100000Y320000D01*
X101600Y317500D01*
D19*
X340000Y600000D03*
D18*
X355000Y505000D02*
X280000Y430000D01*
X275000Y95000D02*
X195000Y15000D01*
X135000Y15000D01*
X65000Y85000D01*
X65000Y110000D01*
X80000Y125000D01*
X100000Y125000D01*
X355000Y505000D02*
X355600Y508000D01*
X101600Y127000D02*
X100000Y125000D01*
D19*
X280000Y430000D03*
X275000Y95000D03*
D18*
X215000Y390000D02*
X355000Y530000D01*
X215000Y390000D02*
X215000Y275000D01*
X240000Y250000D01*
X250000Y85000D02*
X190000Y25000D01*
X140000Y25000D01*
X105000Y60000D01*
X355000Y530000D02*
X355600Y533400D01*
D19*
X240000Y250000D03*
X250000Y85000D03*
X105000Y60000D03*
D18*
X225000Y315000D02*
X225000Y340000D01*
X225000Y315000D02*
X290000Y250000D01*
X340000Y45000D02*
X350000Y35000D01*
X360000Y35000D01*
X420000Y95000D01*
X420000Y270000D01*
X460000Y310000D01*
X460000Y550000D01*
X430000Y580000D01*
X430000Y595000D01*
X455000Y620000D01*
X455000Y675000D01*
X430000Y700000D01*
X365000Y700000D01*
D19*
X225000Y340000D03*
X290000Y250000D03*
X340000Y45000D03*
X365000Y700000D03*
D18*
X230000Y200000D02*
X230000Y155000D01*
X330000Y55000D01*
X330000Y40000D01*
X345000Y25000D01*
X365000Y25000D01*
X430000Y90000D01*
X430000Y265000D01*
X470000Y305000D01*
X470000Y555000D01*
X440000Y585000D01*
X410000Y640000D02*
X345000Y640000D01*
X315000Y670000D01*
X220000Y670000D01*
X205000Y685000D01*
X203200Y685800D01*
D19*
X230000Y200000D03*
X440000Y585000D03*
X410000Y640000D03*
D18*
X175000Y200000D02*
X125000Y150000D01*
X175000Y690000D02*
X110000Y755000D01*
X177800Y203200D02*
X175000Y200000D01*
X177800Y685800D02*
X175000Y690000D01*
D19*
X125000Y150000D03*
X110000Y755000D03*
M02*
