G04 EAGLE Gerber RS-274X export*
G75*
%MOMM*%
%FSLAX34Y34*%
%LPD*%
%INBottom Copper*%
%IPPOS*%
%AMOC8*
5,1,8,0,0,1.08239X$1,22.5*%
G01*
G04 Define Apertures*
%ADD10C,1.879600*%
%ADD11C,1.450000*%
%ADD12C,1.524000*%
%ADD13C,1.705100*%
%ADD14C,1.260000*%
%ADD15C,1.676400*%
%ADD16R,1.508000X1.508000*%
%ADD17C,0.600000*%
%ADD18C,0.756400*%
G36*
X345415Y55228D02*
X342946Y54685D01*
X340462Y55149D01*
X338355Y56544D01*
X298860Y96040D01*
X297503Y98053D01*
X297000Y100530D01*
X297000Y212770D01*
X297391Y214965D01*
X298719Y217115D01*
X300780Y218577D01*
X303249Y219119D01*
X305733Y218656D01*
X307840Y217260D01*
X343834Y181266D01*
X345191Y179253D01*
X345694Y176776D01*
X345694Y175830D01*
X347202Y172189D01*
X349801Y169590D01*
X351117Y167670D01*
X351660Y165201D01*
X351196Y162717D01*
X349801Y160610D01*
X347202Y158011D01*
X345694Y154370D01*
X345694Y150430D01*
X347202Y146789D01*
X349801Y144190D01*
X351117Y142270D01*
X351660Y139801D01*
X351196Y137317D01*
X349801Y135210D01*
X347202Y132611D01*
X345694Y128970D01*
X345694Y125030D01*
X347202Y121389D01*
X349082Y119509D01*
X350399Y117588D01*
X350941Y115120D01*
X350478Y112635D01*
X349082Y110528D01*
X346341Y107787D01*
X344678Y103773D01*
X344678Y102362D01*
X366522Y102362D01*
X366522Y103773D01*
X364859Y107787D01*
X362118Y110528D01*
X360801Y112449D01*
X360259Y114917D01*
X360722Y117402D01*
X362118Y119509D01*
X363998Y121389D01*
X365506Y125030D01*
X365506Y128970D01*
X363998Y132611D01*
X361399Y135210D01*
X360083Y137130D01*
X359540Y139599D01*
X360004Y142083D01*
X361399Y144190D01*
X363998Y146789D01*
X365148Y149565D01*
X366524Y151625D01*
X385934Y171035D01*
X387000Y173608D01*
X387000Y176392D01*
X385934Y178965D01*
X383965Y180934D01*
X381392Y182000D01*
X378608Y182000D01*
X376035Y180934D01*
X374969Y179868D01*
X373095Y178572D01*
X370631Y178010D01*
X368143Y178454D01*
X366025Y179833D01*
X364612Y181928D01*
X363998Y183411D01*
X361399Y186010D01*
X360083Y187930D01*
X359540Y190399D01*
X360004Y192883D01*
X361399Y194990D01*
X363998Y197589D01*
X365506Y201230D01*
X365506Y205170D01*
X363998Y208811D01*
X362118Y210691D01*
X360801Y212612D01*
X360259Y215080D01*
X360722Y217565D01*
X362118Y219672D01*
X364859Y222413D01*
X366522Y226427D01*
X366522Y227838D01*
X344678Y227838D01*
X344678Y226427D01*
X346341Y222413D01*
X349082Y219672D01*
X350399Y217751D01*
X350941Y215283D01*
X350478Y212798D01*
X349082Y210691D01*
X346602Y208211D01*
X346348Y207818D01*
X344287Y206356D01*
X341818Y205813D01*
X339334Y206277D01*
X337227Y207673D01*
X308860Y236040D01*
X307503Y238053D01*
X307000Y240530D01*
X307000Y461392D01*
X305934Y463965D01*
X283965Y485934D01*
X280920Y487196D01*
X278932Y488501D01*
X277503Y490586D01*
X277000Y493062D01*
X277000Y506392D01*
X275934Y508965D01*
X273965Y510934D01*
X270920Y512196D01*
X268932Y513501D01*
X267503Y515586D01*
X267000Y518062D01*
X267000Y554470D01*
X267464Y556853D01*
X268860Y558960D01*
X312160Y602260D01*
X313988Y603535D01*
X316448Y604117D01*
X318939Y603693D01*
X321068Y602331D01*
X322497Y600247D01*
X323000Y597770D01*
X323000Y408608D01*
X324066Y406035D01*
X343834Y386266D01*
X345191Y384253D01*
X345694Y381776D01*
X345694Y379030D01*
X347202Y375389D01*
X349082Y373509D01*
X350399Y371588D01*
X350941Y369120D01*
X350478Y366635D01*
X349082Y364528D01*
X346341Y361787D01*
X344678Y357773D01*
X344678Y356362D01*
X366522Y356362D01*
X366522Y357773D01*
X364859Y361787D01*
X362118Y364528D01*
X360801Y366449D01*
X360259Y368917D01*
X360722Y371402D01*
X362118Y373509D01*
X363998Y375389D01*
X365506Y379030D01*
X365506Y382970D01*
X363998Y386611D01*
X361399Y389210D01*
X360083Y391130D01*
X359540Y393599D01*
X360004Y396083D01*
X361399Y398190D01*
X363998Y400789D01*
X365855Y405272D01*
X367231Y407332D01*
X391040Y431140D01*
X393053Y432497D01*
X395530Y433000D01*
X396392Y433000D01*
X398965Y434066D01*
X405934Y441035D01*
X407000Y443608D01*
X407000Y592770D01*
X407391Y594965D01*
X408719Y597115D01*
X410780Y598577D01*
X413249Y599119D01*
X415733Y598656D01*
X417840Y597260D01*
X436035Y579066D01*
X438608Y578000D01*
X441392Y578000D01*
X443965Y579066D01*
X445934Y581035D01*
X447000Y583608D01*
X447000Y586392D01*
X445934Y588965D01*
X432584Y602316D01*
X431309Y604144D01*
X430727Y606604D01*
X431151Y609095D01*
X432513Y611224D01*
X434597Y612653D01*
X437074Y613156D01*
X441239Y613156D01*
X444600Y614548D01*
X447172Y617120D01*
X448564Y620481D01*
X448564Y624119D01*
X447172Y627480D01*
X444860Y629791D01*
X443543Y631712D01*
X443001Y634180D01*
X443464Y636665D01*
X444860Y638772D01*
X448033Y641945D01*
X449580Y645679D01*
X449580Y646938D01*
X431038Y646938D01*
X431038Y648462D01*
X449580Y648462D01*
X449580Y649721D01*
X448033Y653455D01*
X444860Y656628D01*
X443543Y658549D01*
X443001Y661017D01*
X443464Y663502D01*
X444860Y665609D01*
X447172Y667920D01*
X448564Y671281D01*
X448564Y674919D01*
X447172Y678280D01*
X444600Y680852D01*
X441239Y682244D01*
X422361Y682244D01*
X420780Y681589D01*
X418552Y681109D01*
X416061Y681533D01*
X413932Y682895D01*
X412503Y684979D01*
X412000Y687456D01*
X412000Y728060D01*
X412391Y730254D01*
X413719Y732404D01*
X415780Y733867D01*
X418249Y734409D01*
X420733Y733946D01*
X422840Y732550D01*
X427823Y727567D01*
X434017Y723991D01*
X440924Y722140D01*
X448076Y722140D01*
X454983Y723991D01*
X461177Y727567D01*
X466233Y732623D01*
X467991Y735667D01*
X468790Y736763D01*
X470828Y738257D01*
X473288Y738839D01*
X475779Y738415D01*
X477908Y737053D01*
X479337Y734969D01*
X479840Y732492D01*
X479840Y200390D01*
X479449Y198195D01*
X478121Y196045D01*
X476060Y194583D01*
X473591Y194041D01*
X471107Y194504D01*
X469000Y195900D01*
X440364Y224536D01*
X439089Y226364D01*
X438507Y228824D01*
X438931Y231315D01*
X440293Y233444D01*
X442377Y234873D01*
X444854Y235376D01*
X446056Y235376D01*
X448932Y236567D01*
X451133Y238768D01*
X452324Y241644D01*
X452324Y244756D01*
X451133Y247632D01*
X448932Y249833D01*
X446056Y251024D01*
X442944Y251024D01*
X440068Y249833D01*
X437867Y247632D01*
X436676Y244756D01*
X436676Y243554D01*
X436285Y241359D01*
X434957Y239209D01*
X432896Y237747D01*
X430427Y237205D01*
X427943Y237668D01*
X425836Y239064D01*
X383965Y280934D01*
X381392Y282000D01*
X369488Y282000D01*
X367152Y282445D01*
X365034Y283824D01*
X364722Y284287D01*
X361399Y287610D01*
X360083Y289530D01*
X359540Y291999D01*
X360004Y294483D01*
X361399Y296590D01*
X363998Y299189D01*
X365506Y302830D01*
X365506Y306770D01*
X363998Y310411D01*
X361399Y313010D01*
X360083Y314930D01*
X359540Y317399D01*
X360004Y319883D01*
X361399Y321990D01*
X363998Y324589D01*
X365506Y328230D01*
X365506Y332170D01*
X363998Y335811D01*
X362118Y337691D01*
X360801Y339612D01*
X360259Y342080D01*
X360722Y344565D01*
X362118Y346672D01*
X364859Y349413D01*
X366522Y353427D01*
X366522Y354838D01*
X344678Y354838D01*
X344678Y353427D01*
X346341Y349413D01*
X349082Y346672D01*
X350399Y344751D01*
X350941Y342283D01*
X350478Y339798D01*
X349082Y337691D01*
X347202Y335811D01*
X345694Y332170D01*
X345694Y328230D01*
X347202Y324589D01*
X349801Y321990D01*
X351117Y320070D01*
X351660Y317601D01*
X351196Y315117D01*
X349801Y313010D01*
X347202Y310411D01*
X345694Y306770D01*
X345694Y302830D01*
X347202Y299189D01*
X349801Y296590D01*
X351117Y294670D01*
X351660Y292201D01*
X351196Y289717D01*
X349801Y287610D01*
X347202Y285011D01*
X345694Y281370D01*
X345694Y277430D01*
X347202Y273789D01*
X349801Y271190D01*
X351117Y269270D01*
X351660Y266801D01*
X351196Y264317D01*
X349801Y262210D01*
X347202Y259611D01*
X345694Y255970D01*
X345694Y252030D01*
X347202Y248389D01*
X349082Y246509D01*
X350399Y244588D01*
X350941Y242120D01*
X350478Y239635D01*
X349082Y237528D01*
X346341Y234787D01*
X344678Y230773D01*
X344678Y229362D01*
X366522Y229362D01*
X366522Y230773D01*
X364859Y234787D01*
X362118Y237528D01*
X360801Y239449D01*
X360259Y241917D01*
X360722Y244402D01*
X362118Y246509D01*
X363998Y248389D01*
X365506Y252030D01*
X365506Y255970D01*
X364160Y259220D01*
X363680Y261448D01*
X364104Y263939D01*
X365466Y266068D01*
X367550Y267497D01*
X370027Y268000D01*
X374470Y268000D01*
X376853Y267536D01*
X378960Y266140D01*
X450536Y194564D01*
X451811Y192736D01*
X452393Y190276D01*
X451969Y187785D01*
X450607Y185656D01*
X448523Y184227D01*
X446046Y183724D01*
X442944Y183724D01*
X439949Y182483D01*
X439614Y182417D01*
X438529Y181968D01*
X437345Y181608D01*
X437262Y181591D01*
X437203Y181552D01*
X436100Y180961D01*
X436035Y180934D01*
X435975Y180875D01*
X435018Y180089D01*
X434948Y180041D01*
X434909Y179983D01*
X434116Y179015D01*
X434066Y178965D01*
X434033Y178887D01*
X433450Y177795D01*
X433403Y177724D01*
X433390Y177655D01*
X433027Y176458D01*
X433000Y176392D01*
X433000Y176308D01*
X432879Y175076D01*
X432863Y174993D01*
X432877Y174923D01*
X433000Y173678D01*
X433000Y120530D01*
X432536Y118147D01*
X431140Y116040D01*
X372245Y57144D01*
X370324Y55828D01*
X367856Y55285D01*
X365372Y55749D01*
X363265Y57144D01*
X361399Y59010D01*
X360083Y60930D01*
X359540Y63399D01*
X360004Y65883D01*
X361399Y67990D01*
X363998Y70589D01*
X365506Y74230D01*
X365506Y78170D01*
X363998Y81811D01*
X362118Y83691D01*
X360801Y85612D01*
X360259Y88080D01*
X360722Y90565D01*
X362118Y92672D01*
X364859Y95413D01*
X366522Y99427D01*
X366522Y100838D01*
X344678Y100838D01*
X344678Y99427D01*
X346341Y95413D01*
X349082Y92672D01*
X350399Y90751D01*
X350941Y88283D01*
X350478Y85798D01*
X349082Y83691D01*
X347202Y81811D01*
X345694Y78170D01*
X345694Y74230D01*
X347202Y70589D01*
X349801Y67990D01*
X351117Y66070D01*
X351660Y63601D01*
X351196Y61117D01*
X349801Y59010D01*
X347335Y56544D01*
X345415Y55228D01*
G37*
%LPC*%
G36*
X434420Y470662D02*
X443738Y470662D01*
X443738Y479980D01*
X436455Y479980D01*
X435521Y479593D01*
X434807Y478879D01*
X434420Y477945D01*
X434420Y470662D01*
G37*
G36*
X445262Y470662D02*
X454580Y470662D01*
X454580Y477945D01*
X454193Y478879D01*
X453479Y479593D01*
X452545Y479980D01*
X445262Y479980D01*
X445262Y470662D01*
G37*
G36*
X445262Y459820D02*
X452545Y459820D01*
X453479Y460207D01*
X454193Y460921D01*
X454580Y461855D01*
X454580Y469138D01*
X445262Y469138D01*
X445262Y459820D01*
G37*
G36*
X436455Y459820D02*
X443738Y459820D01*
X443738Y469138D01*
X434420Y469138D01*
X434420Y461855D01*
X434807Y460921D01*
X435521Y460207D01*
X436455Y459820D01*
G37*
G36*
X436657Y410036D02*
X452343Y410036D01*
X452903Y410268D01*
X453332Y410697D01*
X453564Y411257D01*
X453564Y426943D01*
X453332Y427503D01*
X452903Y427932D01*
X452343Y428164D01*
X436657Y428164D01*
X436097Y427932D01*
X435668Y427503D01*
X435436Y426943D01*
X435436Y411257D01*
X435668Y410697D01*
X436097Y410268D01*
X436657Y410036D01*
G37*
G36*
X442944Y307776D02*
X446056Y307776D01*
X448932Y308967D01*
X451133Y311168D01*
X452324Y314044D01*
X452324Y317156D01*
X451133Y320032D01*
X448932Y322233D01*
X446056Y323424D01*
X442944Y323424D01*
X440068Y322233D01*
X437867Y320032D01*
X436676Y317156D01*
X436676Y314044D01*
X437867Y311168D01*
X440068Y308967D01*
X442944Y307776D01*
G37*
%LPD*%
G36*
X167570Y613073D02*
X165101Y612531D01*
X162617Y612994D01*
X160510Y614390D01*
X111941Y662959D01*
X110564Y665019D01*
X110120Y666093D01*
X108321Y667891D01*
X107004Y669812D01*
X106462Y672280D01*
X106925Y674765D01*
X108321Y676872D01*
X110981Y679532D01*
X112666Y683599D01*
X112666Y685038D01*
X100838Y685038D01*
X100838Y686562D01*
X112666Y686562D01*
X112666Y688001D01*
X110981Y692068D01*
X108321Y694728D01*
X107004Y696649D01*
X106462Y699117D01*
X106925Y701602D01*
X108321Y703709D01*
X110120Y705507D01*
X111650Y709201D01*
X111650Y711650D01*
X112076Y713939D01*
X113438Y716068D01*
X115523Y717497D01*
X118000Y718000D01*
X232770Y718000D01*
X234965Y717609D01*
X237115Y716281D01*
X238577Y714220D01*
X239119Y711751D01*
X238656Y709267D01*
X237260Y707160D01*
X226582Y696482D01*
X224932Y695292D01*
X224494Y695073D01*
X224472Y695119D01*
X223977Y694763D01*
X222907Y694320D01*
X220390Y691802D01*
X218470Y690486D01*
X216001Y689943D01*
X213517Y690407D01*
X211410Y691802D01*
X208893Y694320D01*
X205199Y695850D01*
X201201Y695850D01*
X197507Y694320D01*
X194990Y691802D01*
X193070Y690486D01*
X190601Y689943D01*
X188117Y690407D01*
X186010Y691802D01*
X183493Y694320D01*
X179799Y695850D01*
X175801Y695850D01*
X172107Y694320D01*
X169280Y691493D01*
X167751Y687799D01*
X167751Y683801D01*
X169280Y680107D01*
X172107Y677280D01*
X175801Y675751D01*
X179799Y675751D01*
X183493Y677280D01*
X186010Y679798D01*
X187930Y681114D01*
X190399Y681657D01*
X192883Y681193D01*
X194990Y679798D01*
X197507Y677280D01*
X201201Y675751D01*
X205199Y675751D01*
X208893Y677280D01*
X211410Y679798D01*
X213330Y681114D01*
X215799Y681657D01*
X218283Y681193D01*
X220390Y679798D01*
X223154Y677034D01*
X224471Y675113D01*
X225013Y672645D01*
X224550Y670161D01*
X223154Y668054D01*
X169490Y614390D01*
X167570Y613073D01*
G37*
G36*
X316012Y656465D02*
X313552Y655883D01*
X311061Y656307D01*
X308932Y657669D01*
X307503Y659753D01*
X307000Y662230D01*
X307000Y671591D01*
X307445Y673927D01*
X308824Y676045D01*
X310152Y676940D01*
X312291Y679079D01*
X314212Y680396D01*
X316680Y680938D01*
X319165Y680475D01*
X321272Y679079D01*
X323932Y676419D01*
X324053Y676369D01*
X325967Y675133D01*
X327430Y673072D01*
X327972Y670604D01*
X327509Y668119D01*
X326113Y666012D01*
X317840Y657740D01*
X316012Y656465D01*
G37*
G36*
X356012Y587476D02*
X353552Y586895D01*
X351061Y587318D01*
X348932Y588680D01*
X347503Y590765D01*
X347000Y593241D01*
X347000Y598687D01*
X347391Y600881D01*
X348579Y602805D01*
X347629Y602982D01*
X345522Y604378D01*
X343965Y605934D01*
X340920Y607196D01*
X338932Y608501D01*
X337503Y610586D01*
X337000Y613062D01*
X337000Y616392D01*
X335487Y620044D01*
X335005Y622373D01*
X335468Y624857D01*
X336864Y626964D01*
X367160Y657260D01*
X368988Y658535D01*
X371448Y659117D01*
X373939Y658693D01*
X376068Y657331D01*
X377497Y655247D01*
X378000Y652770D01*
X378000Y627888D01*
X377573Y625599D01*
X376211Y623470D01*
X374127Y622041D01*
X371650Y621538D01*
X369062Y621538D01*
X369062Y608838D01*
X356357Y608838D01*
X355971Y606673D01*
X354783Y604750D01*
X355733Y604573D01*
X357840Y603177D01*
X360345Y600672D01*
X361662Y598751D01*
X362204Y596283D01*
X361741Y593798D01*
X360345Y591691D01*
X358786Y590132D01*
X358050Y588971D01*
X356012Y587476D01*
G37*
%LPC*%
G36*
X356362Y610362D02*
X367538Y610362D01*
X367538Y621538D01*
X365925Y621538D01*
X361538Y619721D01*
X358179Y616362D01*
X356362Y611975D01*
X356362Y610362D01*
G37*
%LPD*%
G36*
X316012Y626465D02*
X313552Y625883D01*
X311061Y626307D01*
X308932Y627669D01*
X307503Y629753D01*
X307000Y632230D01*
X307000Y638305D01*
X307409Y640546D01*
X308754Y642686D01*
X310827Y644132D01*
X313299Y644654D01*
X315780Y644171D01*
X319240Y642738D01*
X319965Y642609D01*
X322115Y641281D01*
X323577Y639220D01*
X324119Y636751D01*
X323656Y634267D01*
X322260Y632160D01*
X317840Y627740D01*
X316012Y626465D01*
G37*
G36*
X372802Y433279D02*
X370338Y432717D01*
X367850Y433161D01*
X365732Y434540D01*
X364319Y436636D01*
X363998Y437411D01*
X361399Y440010D01*
X360083Y441930D01*
X359540Y444399D01*
X360004Y446883D01*
X361399Y448990D01*
X363998Y451589D01*
X365506Y455230D01*
X365506Y459170D01*
X363998Y462811D01*
X362118Y464691D01*
X360801Y466612D01*
X360259Y469080D01*
X360722Y471565D01*
X362118Y473672D01*
X364859Y476413D01*
X366522Y480427D01*
X366522Y481838D01*
X354838Y481838D01*
X354838Y483362D01*
X366522Y483362D01*
X366522Y484773D01*
X364859Y488787D01*
X362118Y491528D01*
X360801Y493449D01*
X360259Y495917D01*
X360722Y498402D01*
X362118Y500509D01*
X363998Y502389D01*
X365506Y506030D01*
X365506Y509970D01*
X363998Y513611D01*
X361399Y516210D01*
X360083Y518130D01*
X359540Y520599D01*
X360004Y523083D01*
X361399Y525190D01*
X363998Y527789D01*
X365506Y531430D01*
X365506Y535370D01*
X364129Y538694D01*
X364031Y539131D01*
X363578Y539432D01*
X361211Y541798D01*
X357570Y543306D01*
X353350Y543306D01*
X351061Y543733D01*
X348932Y545095D01*
X347503Y547179D01*
X347000Y549656D01*
X347000Y575159D01*
X347374Y577305D01*
X348685Y579466D01*
X350734Y580945D01*
X353198Y581507D01*
X355686Y581063D01*
X357804Y579684D01*
X358703Y578351D01*
X362113Y574941D01*
X366127Y573278D01*
X366650Y573278D01*
X368939Y572851D01*
X371068Y571489D01*
X372497Y569405D01*
X373000Y566928D01*
X373000Y548608D01*
X373934Y546352D01*
X374032Y545915D01*
X374486Y545615D01*
X376035Y544066D01*
X378608Y543000D01*
X381392Y543000D01*
X384220Y544171D01*
X386448Y544651D01*
X388939Y544228D01*
X391068Y542866D01*
X392497Y540781D01*
X393000Y538305D01*
X393000Y453062D01*
X392555Y450726D01*
X391176Y448608D01*
X389080Y447196D01*
X386035Y445934D01*
X374676Y434575D01*
X372802Y433279D01*
G37*
G36*
X234998Y345527D02*
X232525Y345004D01*
X230044Y345487D01*
X226392Y347000D01*
X225530Y347000D01*
X223147Y347464D01*
X221040Y348860D01*
X189149Y380751D01*
X187772Y382811D01*
X186198Y386611D01*
X183599Y389210D01*
X182283Y391130D01*
X181740Y393599D01*
X182204Y396083D01*
X183599Y398190D01*
X186198Y400789D01*
X187706Y404430D01*
X187706Y408370D01*
X186198Y412011D01*
X183599Y414610D01*
X182283Y416530D01*
X181740Y418999D01*
X182204Y421483D01*
X183599Y423590D01*
X186198Y426189D01*
X187706Y429830D01*
X187706Y433770D01*
X186198Y437411D01*
X183599Y440010D01*
X182283Y441930D01*
X181740Y444399D01*
X182204Y446883D01*
X183599Y448990D01*
X186198Y451589D01*
X187706Y455230D01*
X187706Y459170D01*
X186198Y462811D01*
X184318Y464691D01*
X183001Y466612D01*
X182459Y469080D01*
X182922Y471565D01*
X184318Y473672D01*
X187059Y476413D01*
X188722Y480427D01*
X188722Y481838D01*
X177038Y481838D01*
X177038Y483362D01*
X188722Y483362D01*
X188722Y484773D01*
X187059Y488787D01*
X184318Y491528D01*
X183001Y493449D01*
X182459Y495917D01*
X182922Y498402D01*
X184318Y500509D01*
X186198Y502389D01*
X188020Y506787D01*
X188170Y507559D01*
X189566Y509666D01*
X242160Y562260D01*
X243988Y563535D01*
X246448Y564117D01*
X248939Y563693D01*
X251068Y562331D01*
X252497Y560247D01*
X253000Y557770D01*
X253000Y365530D01*
X252536Y363147D01*
X251140Y361040D01*
X236964Y346864D01*
X234998Y345527D01*
G37*
G36*
X81012Y381465D02*
X78552Y380883D01*
X76061Y381307D01*
X73932Y382669D01*
X72503Y384753D01*
X72000Y387230D01*
X72000Y474470D01*
X72464Y476853D01*
X73860Y478960D01*
X84304Y489404D01*
X86224Y490721D01*
X88692Y491263D01*
X91177Y490800D01*
X93284Y489404D01*
X94879Y487809D01*
X96196Y485888D01*
X96738Y483420D01*
X96275Y480935D01*
X94879Y478828D01*
X92219Y476168D01*
X90535Y472101D01*
X90535Y470662D01*
X112666Y470662D01*
X112666Y472101D01*
X110981Y476168D01*
X108321Y478828D01*
X107004Y480749D01*
X106462Y483217D01*
X106925Y485702D01*
X108321Y487809D01*
X110120Y489607D01*
X111650Y493301D01*
X111650Y497299D01*
X110120Y500993D01*
X108722Y502390D01*
X107426Y504265D01*
X106864Y506729D01*
X107307Y509217D01*
X108686Y511335D01*
X110782Y512747D01*
X113965Y514066D01*
X127160Y527260D01*
X128988Y528535D01*
X131448Y529117D01*
X133939Y528693D01*
X136068Y527331D01*
X137497Y525247D01*
X138000Y522770D01*
X138000Y478062D01*
X137555Y475726D01*
X136176Y473608D01*
X134080Y472196D01*
X131035Y470934D01*
X123506Y463405D01*
X121677Y462130D01*
X119218Y461548D01*
X116726Y461972D01*
X114598Y463334D01*
X113168Y465419D01*
X112666Y467895D01*
X112666Y469138D01*
X90535Y469138D01*
X90535Y467699D01*
X92219Y463632D01*
X94879Y460972D01*
X96196Y459051D01*
X96738Y456583D01*
X96275Y454098D01*
X94879Y451991D01*
X93080Y450193D01*
X91551Y446499D01*
X91551Y442501D01*
X93080Y438807D01*
X95598Y436290D01*
X96914Y434370D01*
X97457Y431901D01*
X96993Y429417D01*
X95598Y427310D01*
X93080Y424793D01*
X91551Y421099D01*
X91551Y417101D01*
X93080Y413407D01*
X95598Y410890D01*
X96914Y408970D01*
X97457Y406501D01*
X96993Y404017D01*
X95598Y401910D01*
X93080Y399393D01*
X91551Y395699D01*
X91551Y394080D01*
X91086Y391697D01*
X89691Y389590D01*
X82840Y382740D01*
X81012Y381465D01*
G37*
G36*
X193924Y54428D02*
X191456Y53885D01*
X188972Y54349D01*
X186865Y55744D01*
X183599Y59010D01*
X182283Y60930D01*
X181740Y63399D01*
X182204Y65883D01*
X183599Y67990D01*
X186198Y70589D01*
X187706Y74230D01*
X187706Y78170D01*
X186198Y81811D01*
X184318Y83691D01*
X183001Y85612D01*
X182459Y88080D01*
X182922Y90565D01*
X184318Y92672D01*
X187059Y95413D01*
X188722Y99427D01*
X188722Y100838D01*
X166878Y100838D01*
X166878Y99427D01*
X168541Y95413D01*
X171282Y92672D01*
X172599Y90751D01*
X173141Y88283D01*
X172678Y85798D01*
X171282Y83691D01*
X169402Y81811D01*
X167894Y78170D01*
X167894Y74230D01*
X169402Y70589D01*
X172001Y67990D01*
X173317Y66070D01*
X173860Y63601D01*
X173396Y61117D01*
X172001Y59010D01*
X170935Y57944D01*
X169015Y56628D01*
X166546Y56085D01*
X164062Y56549D01*
X161955Y57944D01*
X153860Y66040D01*
X152503Y68053D01*
X152000Y70530D01*
X152000Y161392D01*
X150934Y163965D01*
X113509Y201390D01*
X112152Y203404D01*
X111921Y204544D01*
X110120Y208893D01*
X107602Y211410D01*
X106286Y213330D01*
X105743Y215799D01*
X106207Y218283D01*
X107602Y220390D01*
X110120Y222907D01*
X111650Y226601D01*
X111650Y230599D01*
X110120Y234293D01*
X108321Y236091D01*
X107004Y238012D01*
X106462Y240480D01*
X106925Y242965D01*
X108321Y245072D01*
X110981Y247732D01*
X112666Y251799D01*
X112666Y253238D01*
X100838Y253238D01*
X100838Y254762D01*
X112666Y254762D01*
X112666Y256201D01*
X110981Y260268D01*
X108321Y262928D01*
X107004Y264849D01*
X106462Y267317D01*
X106925Y269802D01*
X108321Y271909D01*
X110120Y273707D01*
X111650Y277401D01*
X111650Y281399D01*
X110120Y285093D01*
X109546Y285666D01*
X108229Y287587D01*
X107687Y290055D01*
X108150Y292540D01*
X109546Y294646D01*
X130934Y316035D01*
X132000Y318608D01*
X132000Y399470D01*
X132464Y401853D01*
X133860Y403960D01*
X158783Y428883D01*
X160657Y430179D01*
X163121Y430741D01*
X165609Y430298D01*
X167727Y428919D01*
X169139Y426823D01*
X169402Y426189D01*
X172001Y423590D01*
X173317Y421670D01*
X173860Y419201D01*
X173396Y416717D01*
X172001Y414610D01*
X169402Y412011D01*
X167894Y408370D01*
X167894Y404430D01*
X169402Y400789D01*
X172001Y398190D01*
X173317Y396270D01*
X173860Y393801D01*
X173396Y391317D01*
X172001Y389210D01*
X169402Y386611D01*
X167894Y382970D01*
X167894Y379030D01*
X169402Y375389D01*
X171282Y373509D01*
X172599Y371588D01*
X173141Y369120D01*
X172678Y366635D01*
X171282Y364528D01*
X168541Y361787D01*
X166878Y357773D01*
X166878Y356362D01*
X178562Y356362D01*
X178562Y354838D01*
X166878Y354838D01*
X166878Y353427D01*
X168541Y349413D01*
X171282Y346672D01*
X172599Y344751D01*
X173141Y342283D01*
X172678Y339798D01*
X171282Y337691D01*
X169402Y335811D01*
X167894Y332170D01*
X167894Y328230D01*
X169402Y324589D01*
X172001Y321990D01*
X173317Y320070D01*
X173860Y317601D01*
X173396Y315117D01*
X172001Y313010D01*
X169402Y310411D01*
X167894Y306770D01*
X167894Y302830D01*
X169402Y299189D01*
X172001Y296590D01*
X173317Y294670D01*
X173860Y292201D01*
X173396Y289717D01*
X172001Y287610D01*
X169402Y285011D01*
X167894Y281370D01*
X167894Y277430D01*
X169402Y273789D01*
X172001Y271190D01*
X173317Y269270D01*
X173860Y266801D01*
X173396Y264317D01*
X172001Y262210D01*
X169402Y259611D01*
X167894Y255970D01*
X167894Y252030D01*
X169402Y248389D01*
X171282Y246509D01*
X172599Y244588D01*
X173141Y242120D01*
X172678Y239635D01*
X171282Y237528D01*
X168541Y234787D01*
X166878Y230773D01*
X166878Y229362D01*
X178562Y229362D01*
X178562Y227838D01*
X166878Y227838D01*
X166878Y226427D01*
X168541Y222413D01*
X171282Y219672D01*
X172599Y217751D01*
X173141Y215283D01*
X172678Y212798D01*
X171282Y210691D01*
X169402Y208811D01*
X167894Y205170D01*
X167894Y201230D01*
X169402Y197589D01*
X172001Y194990D01*
X173317Y193070D01*
X173860Y190601D01*
X173396Y188117D01*
X172001Y186010D01*
X169402Y183411D01*
X167894Y179770D01*
X167894Y175830D01*
X169402Y172189D01*
X172001Y169590D01*
X173317Y167670D01*
X173860Y165201D01*
X173396Y162717D01*
X172001Y160610D01*
X169402Y158011D01*
X167894Y154370D01*
X167894Y150430D01*
X169402Y146789D01*
X172001Y144190D01*
X173317Y142270D01*
X173860Y139801D01*
X173396Y137317D01*
X172001Y135210D01*
X169402Y132611D01*
X167894Y128970D01*
X167894Y125030D01*
X169402Y121389D01*
X171282Y119509D01*
X172599Y117588D01*
X173141Y115120D01*
X172678Y112635D01*
X171282Y110528D01*
X168541Y107787D01*
X166878Y103773D01*
X166878Y102362D01*
X188722Y102362D01*
X188722Y103773D01*
X187059Y107787D01*
X184318Y110528D01*
X183001Y112449D01*
X182459Y114917D01*
X182922Y117402D01*
X184318Y119509D01*
X186198Y121389D01*
X187706Y125030D01*
X187706Y128970D01*
X186198Y132611D01*
X183599Y135210D01*
X182283Y137130D01*
X181740Y139599D01*
X182204Y142083D01*
X183599Y144190D01*
X186198Y146789D01*
X187706Y150430D01*
X187706Y154370D01*
X186198Y158011D01*
X183599Y160610D01*
X182283Y162530D01*
X181740Y164999D01*
X182204Y167483D01*
X183599Y169590D01*
X186198Y172189D01*
X187706Y175830D01*
X187706Y179770D01*
X186198Y183411D01*
X183599Y186010D01*
X182283Y187930D01*
X181740Y190399D01*
X182204Y192883D01*
X183599Y194990D01*
X186198Y197589D01*
X187706Y201230D01*
X187706Y205170D01*
X186198Y208811D01*
X184318Y210691D01*
X183001Y212612D01*
X182459Y215080D01*
X182922Y217565D01*
X184318Y219672D01*
X187883Y223237D01*
X189804Y224554D01*
X192272Y225096D01*
X194756Y224633D01*
X196863Y223237D01*
X226035Y194066D01*
X229080Y192804D01*
X231068Y191499D01*
X232497Y189414D01*
X233000Y186938D01*
X233000Y95530D01*
X232536Y93147D01*
X231140Y91040D01*
X195845Y55744D01*
X193924Y54428D01*
G37*
G36*
X457871Y108374D02*
X455402Y107832D01*
X452918Y108295D01*
X450811Y109691D01*
X448860Y111642D01*
X447503Y113655D01*
X447000Y116132D01*
X447000Y164705D01*
X447464Y167088D01*
X448860Y169195D01*
X451640Y171975D01*
X451950Y172465D01*
X453988Y173959D01*
X456448Y174541D01*
X458939Y174117D01*
X461068Y172755D01*
X462497Y170671D01*
X463000Y168194D01*
X463000Y115530D01*
X462536Y113147D01*
X461140Y111040D01*
X459791Y109691D01*
X457871Y108374D01*
G37*
D10*
X368300Y584200D03*
X368300Y609600D03*
D11*
X228600Y609600D03*
X254000Y609600D03*
D12*
X424180Y622300D02*
X439420Y622300D01*
X439420Y647700D02*
X424180Y647700D01*
X424180Y673100D02*
X439420Y673100D01*
D13*
X101600Y711200D03*
X101600Y685800D03*
X101600Y660400D03*
X101600Y635000D03*
X101600Y609600D03*
X101600Y584200D03*
X101600Y558800D03*
X101600Y533400D03*
X101600Y279400D03*
X101600Y254000D03*
X101600Y228600D03*
X101600Y203200D03*
X101600Y177800D03*
X101600Y152400D03*
X101600Y127000D03*
X101600Y101600D03*
X101600Y495300D03*
X101600Y469900D03*
X101600Y444500D03*
X101600Y419100D03*
X101600Y393700D03*
X101600Y368300D03*
X101600Y342900D03*
X101600Y317500D03*
D14*
X444500Y243200D03*
X444500Y315600D03*
X444500Y103500D03*
X444500Y175900D03*
D15*
X355600Y50800D03*
X355600Y76200D03*
X355600Y101600D03*
X355600Y127000D03*
X355600Y152400D03*
X355600Y177800D03*
X355600Y203200D03*
X355600Y228600D03*
X355600Y254000D03*
X355600Y279400D03*
X355600Y304800D03*
X355600Y330200D03*
X355600Y355600D03*
X355600Y381000D03*
X355600Y406400D03*
X355600Y431800D03*
X355600Y457200D03*
X355600Y482600D03*
X355600Y508000D03*
X355600Y533400D03*
X177800Y533400D03*
X177800Y508000D03*
X177800Y482600D03*
X177800Y457200D03*
X177800Y431800D03*
X177800Y406400D03*
X177800Y381000D03*
X177800Y355600D03*
X177800Y330200D03*
X177800Y304800D03*
X177800Y279400D03*
X177800Y254000D03*
X177800Y228600D03*
X177800Y203200D03*
X177800Y177800D03*
X177800Y152400D03*
X177800Y127000D03*
X177800Y101600D03*
X177800Y76200D03*
X177800Y50800D03*
D16*
X444500Y419100D03*
X444500Y469900D03*
D13*
X355600Y685800D03*
X330200Y685800D03*
X304800Y685800D03*
X279400Y685800D03*
X254000Y685800D03*
X228600Y685800D03*
X203200Y685800D03*
X177800Y685800D03*
D17*
X460000Y120000D02*
X445000Y105000D01*
X460000Y120000D02*
X460000Y180000D01*
X415000Y225000D01*
X360000Y225000D01*
X445000Y105000D02*
X444500Y103500D01*
X360000Y225000D02*
X355600Y228600D01*
X440000Y440000D02*
X440000Y465000D01*
X440000Y440000D02*
X355600Y355600D01*
X440000Y465000D02*
X444500Y469900D01*
X350000Y590000D02*
X365000Y605000D01*
X350000Y590000D02*
X350000Y560000D01*
X370000Y540000D01*
X370000Y495000D01*
X360000Y485000D01*
X365000Y605000D02*
X368300Y609600D01*
X360000Y485000D02*
X355600Y482600D01*
X295000Y610000D02*
X310000Y625000D01*
X310000Y665000D01*
X330000Y685000D01*
X330200Y685800D01*
X195000Y120000D02*
X180000Y105000D01*
X195000Y120000D02*
X195000Y210000D01*
X180000Y225000D01*
X180000Y105000D02*
X177800Y101600D01*
X180000Y225000D02*
X177800Y228600D01*
X115000Y295000D02*
X175000Y355000D01*
X115000Y295000D02*
X115000Y265000D01*
X105000Y255000D01*
X175000Y355000D02*
X177800Y355600D01*
X105000Y255000D02*
X101600Y254000D01*
X150000Y230000D02*
X175000Y230000D01*
X150000Y230000D02*
X115000Y265000D01*
X175000Y230000D02*
X177800Y228600D01*
X125000Y470000D02*
X105000Y470000D01*
X125000Y470000D02*
X135000Y480000D01*
X105000Y470000D02*
X101600Y469900D01*
X195000Y510000D02*
X295000Y610000D01*
X195000Y510000D02*
X195000Y500000D01*
X180000Y485000D01*
X177800Y482600D01*
D18*
X295000Y610000D03*
X135000Y480000D03*
X419100Y571500D03*
X406400Y419100D03*
X469900Y254000D03*
X381000Y88900D03*
X215900Y508000D03*
D17*
X175000Y535000D02*
X175000Y610000D01*
X235000Y670000D01*
X260000Y670000D01*
X275000Y685000D01*
X177800Y533400D02*
X175000Y535000D01*
X275000Y685000D02*
X279400Y685800D01*
X230000Y275000D02*
X180000Y275000D01*
X230000Y275000D02*
X260000Y245000D01*
X260000Y95000D01*
X320000Y35000D01*
X360000Y35000D01*
X440000Y115000D01*
X440000Y175000D01*
X180000Y275000D02*
X177800Y279400D01*
X440000Y175000D02*
X444500Y175900D01*
X230000Y610000D02*
X270000Y650000D01*
X320000Y650000D02*
X355000Y685000D01*
X230000Y610000D02*
X228600Y609600D01*
X355000Y685000D02*
X355600Y685800D01*
X100000Y365000D02*
X85000Y350000D01*
X85000Y170000D01*
X100000Y155000D01*
X100000Y365000D02*
X101600Y368300D01*
X100000Y155000D02*
X101600Y152400D01*
X100000Y580000D02*
X85000Y580000D01*
X65000Y560000D01*
X100000Y580000D02*
X101600Y584200D01*
D18*
X270000Y650000D03*
X320000Y650000D03*
X65000Y560000D03*
D17*
X180000Y510000D02*
X300000Y630000D01*
X300000Y685000D01*
X180000Y510000D02*
X177800Y508000D01*
X300000Y685000D02*
X304800Y685800D01*
X175000Y455000D02*
X125000Y405000D01*
X125000Y320000D01*
X105000Y300000D01*
X100000Y300000D01*
X65000Y335000D02*
X65000Y480000D01*
X105000Y520000D01*
X110000Y520000D01*
X160000Y570000D01*
X160000Y605000D01*
X105000Y660000D01*
X177800Y457200D02*
X175000Y455000D01*
X105000Y660000D02*
X101600Y660400D01*
D18*
X100000Y300000D03*
X65000Y335000D03*
D17*
X115000Y445000D02*
X135000Y465000D01*
X115000Y445000D02*
X105000Y445000D01*
X101600Y444500D01*
D18*
X135000Y465000D03*
D17*
X270000Y505000D02*
X270000Y195000D01*
X215000Y560000D02*
X185000Y590000D01*
X150000Y590000D02*
X105000Y635000D01*
X101600Y635000D01*
D18*
X270000Y195000D03*
X270000Y505000D03*
X215000Y560000D03*
X185000Y590000D03*
X150000Y590000D03*
D17*
X300000Y235000D02*
X355000Y180000D01*
X300000Y235000D02*
X300000Y460000D01*
X280000Y480000D01*
X200000Y560000D02*
X185000Y575000D01*
X145000Y535000D02*
X145000Y460000D01*
X105000Y420000D01*
X355000Y180000D02*
X355600Y177800D01*
X105000Y420000D02*
X101600Y419100D01*
D18*
X280000Y480000D03*
X200000Y560000D03*
X185000Y575000D03*
X145000Y535000D03*
D17*
X240000Y235000D02*
X240000Y90000D01*
X185000Y35000D01*
X175000Y35000D01*
X145000Y65000D01*
X145000Y160000D01*
X105000Y200000D01*
X101600Y203200D01*
D18*
X240000Y235000D03*
D17*
X360000Y155000D02*
X380000Y175000D01*
X380000Y550000D02*
X380000Y575000D01*
X385000Y580000D01*
X385000Y710000D01*
X370000Y725000D01*
X95000Y725000D01*
X85000Y715000D01*
X85000Y625000D01*
X100000Y610000D01*
X360000Y155000D02*
X355600Y152400D01*
X101600Y609600D02*
X100000Y610000D01*
D18*
X380000Y175000D03*
X380000Y550000D03*
D17*
X75000Y365000D02*
X75000Y105000D01*
X75000Y365000D02*
X100000Y390000D01*
X101600Y393700D01*
D18*
X75000Y105000D03*
D17*
X360000Y275000D02*
X380000Y275000D01*
X470000Y185000D01*
X470000Y110000D01*
X385000Y25000D01*
X170000Y25000D01*
X135000Y60000D01*
X135000Y155000D01*
X115000Y175000D01*
X105000Y175000D01*
X355600Y279400D02*
X360000Y275000D01*
X105000Y175000D02*
X101600Y177800D01*
X330000Y410000D02*
X355000Y385000D01*
X330000Y410000D02*
X330000Y615000D01*
X215000Y635000D02*
X185000Y605000D01*
X135000Y590000D02*
X105000Y560000D01*
X355000Y385000D02*
X355600Y381000D01*
X105000Y560000D02*
X101600Y558800D01*
D18*
X330000Y615000D03*
X215000Y635000D03*
X185000Y605000D03*
X135000Y590000D03*
D17*
X360000Y410000D02*
X390000Y440000D01*
X395000Y440000D01*
X400000Y445000D01*
X400000Y675000D01*
X405000Y680000D01*
X405000Y730000D01*
X380000Y755000D01*
X125000Y755000D01*
X105000Y735000D01*
X90000Y735000D01*
X55000Y700000D01*
X55000Y555000D01*
X75000Y535000D01*
X100000Y535000D01*
X355600Y406400D02*
X360000Y410000D01*
X101600Y533400D02*
X100000Y535000D01*
X160000Y535000D02*
X160000Y455000D01*
X115000Y410000D01*
X115000Y355000D01*
X105000Y345000D01*
X101600Y342900D01*
D18*
X160000Y535000D03*
D17*
X340000Y475000D02*
X355000Y460000D01*
X340000Y475000D02*
X340000Y600000D01*
X355000Y460000D02*
X355600Y457200D01*
D18*
X340000Y600000D03*
D17*
X280000Y430000D02*
X280000Y100000D01*
X275000Y95000D01*
D18*
X280000Y430000D03*
X275000Y95000D03*
D17*
X250000Y240000D02*
X240000Y250000D01*
X250000Y240000D02*
X250000Y85000D01*
X105000Y100000D02*
X105000Y60000D01*
X105000Y100000D02*
X101600Y101600D01*
D18*
X240000Y250000D03*
X250000Y85000D03*
X105000Y60000D03*
D17*
X220000Y340000D02*
X180000Y380000D01*
X220000Y340000D02*
X225000Y340000D01*
X290000Y250000D02*
X290000Y95000D01*
X340000Y45000D01*
X365000Y700000D02*
X265000Y700000D01*
X255000Y690000D01*
X177800Y381000D02*
X180000Y380000D01*
X254000Y685800D02*
X255000Y690000D01*
D18*
X225000Y340000D03*
X290000Y250000D03*
X340000Y45000D03*
X365000Y700000D03*
D17*
X230000Y330000D02*
X180000Y330000D01*
X230000Y330000D02*
X260000Y360000D01*
X260000Y560000D01*
X375000Y675000D01*
X375000Y705000D01*
X370000Y710000D01*
X250000Y710000D01*
X230000Y690000D01*
X180000Y330000D02*
X177800Y330200D01*
X228600Y685800D02*
X230000Y690000D01*
X180000Y250000D02*
X230000Y200000D01*
X440000Y585000D02*
X410000Y615000D01*
X410000Y640000D01*
X177800Y254000D02*
X180000Y250000D01*
D18*
X230000Y200000D03*
X440000Y585000D03*
X410000Y640000D03*
D17*
X125000Y150000D02*
X125000Y20000D01*
X120000Y15000D01*
X110000Y15000D01*
X45000Y80000D01*
X45000Y705000D01*
X95000Y755000D01*
X110000Y755000D01*
D18*
X125000Y150000D03*
X110000Y755000D03*
M02*
