M48
;GenerationSoftware,Autodesk,EAGLE,9.7.0*%
;CreationDate,2024-10-20T03:35:26Z*%
FMAT,2
ICI,OFF
METRIC,TZ,000.000
T8C0.350
T7C0.660
T6C0.850
T5C0.950
T4C1.000
T3C1.016
T2C1.105
T1C3.400
%
G90
M71
T1
X3986Y3986
X44450Y3986
X44450Y74930
X3986Y74744
T2
X10160Y12700
X10160Y15240
X10160Y10160
X10160Y39370
X10160Y22860
X10160Y17780
X10160Y20320
X10160Y41910
X10160Y44450
X10160Y46990
X10160Y71120
X10160Y68580
X10160Y55880
X10160Y66040
X10160Y63500
X10160Y60960
X10160Y58420
X22860Y68580
X10160Y53340
X10160Y27940
X10160Y25400
X20320Y68580
X25400Y68580
X27940Y68580
X30480Y68580
X33020Y68580
X35560Y68580
X10160Y36830
X17780Y68580
X10160Y31750
X10160Y34290
X10160Y49530
T3
X36830Y58420
X43180Y62230
X43180Y64770
X43180Y67310
X36830Y60960
T4
X44450Y41910
X44450Y46990
T5
X35560Y43180
X35560Y45720
X35560Y50800
X35560Y53340
X17780Y53340
X17780Y50800
X17780Y48260
X17780Y45720
X17780Y43180
X17780Y40640
X17780Y38100
X17780Y35560
X17780Y33020
X17780Y30480
X17780Y27940
X17780Y25400
X17780Y22860
X17780Y17780
X17780Y15240
X17780Y12700
X17780Y10160
X17780Y7620
X17780Y5080
X17780Y20320
X35560Y48260
X35560Y5080
X35560Y7620
X35560Y10160
X35560Y12700
X35560Y15240
X35560Y17780
X35560Y20320
X35560Y22860
X35560Y25400
X35560Y27940
X35560Y30480
X35560Y33020
X35560Y35560
X35560Y38100
X35560Y40640
T6
X25400Y60960
X22860Y60960
T7
X44450Y24320
X44450Y31560
X44450Y10350
X44450Y17590
T8
X21590Y50800
X27000Y65000
X32000Y65000
X6500Y56000
X10000Y30000
X6500Y33500
X13500Y46500
X27000Y19500
X27000Y50500
X21500Y56000
X15000Y59000
X28000Y48000
X20000Y56000
X18500Y57500
X14500Y53500
X24000Y23500
X38000Y17500
X38000Y55000
X41000Y64000
X44000Y58500
X23000Y20000
X36500Y70000
X34000Y4500
X29000Y25000
X22500Y34000
X10500Y6000
X25000Y8500
X29500Y61000
X13500Y48000
X18500Y59000
X41910Y57150
X40640Y41910
X24000Y25000
X46990Y25400
X38100Y8890
X11000Y75500
X27500Y9500
X28000Y43000
X34000Y60000
X16000Y53500
X13500Y59000
X18500Y60500
X21500Y63500
X33000Y61500
X7500Y10500
X12500Y15000
M30