G04 EAGLE Gerber RS-274X export*
G75*
%MOMM*%
%FSLAX34Y34*%
%LPD*%
%INSoldermask Top*%
%IPPOS*%
%AMOC8*
5,1,8,0,0,1.08239X$1,22.5*%
G01*
G04 Define Apertures*
%ADD10C,3.603200*%
%ADD11C,2.082800*%
%ADD12C,1.653200*%
%ADD13C,1.727200*%
%ADD14C,1.908300*%
%ADD15C,1.463200*%
%ADD16C,1.879600*%
%ADD17R,1.711200X1.711200*%
%ADD18C,0.959600*%
D10*
X39860Y747440D03*
X444500Y39860D03*
X39860Y39860D03*
X444500Y749300D03*
D11*
X368300Y584200D03*
X368300Y609600D03*
D12*
X228600Y609600D03*
X254000Y609600D03*
D13*
X424180Y622300D02*
X439420Y622300D01*
X439420Y647700D02*
X424180Y647700D01*
X424180Y673100D02*
X439420Y673100D01*
D14*
X101600Y711200D03*
X101600Y685800D03*
X101600Y660400D03*
X101600Y635000D03*
X101600Y609600D03*
X101600Y584200D03*
X101600Y558800D03*
X101600Y533400D03*
X101600Y279400D03*
X101600Y254000D03*
X101600Y228600D03*
X101600Y203200D03*
X101600Y177800D03*
X101600Y152400D03*
X101600Y127000D03*
X101600Y101600D03*
X101600Y495300D03*
X101600Y469900D03*
X101600Y444500D03*
X101600Y419100D03*
X101600Y393700D03*
X101600Y368300D03*
X101600Y342900D03*
X101600Y317500D03*
D15*
X444500Y243200D03*
X444500Y315600D03*
X444500Y103500D03*
X444500Y175900D03*
D16*
X355600Y50800D03*
X355600Y76200D03*
X355600Y101600D03*
X355600Y127000D03*
X355600Y152400D03*
X355600Y177800D03*
X355600Y203200D03*
X355600Y228600D03*
X355600Y254000D03*
X355600Y279400D03*
X355600Y304800D03*
X355600Y330200D03*
X355600Y355600D03*
X355600Y381000D03*
X355600Y406400D03*
X355600Y431800D03*
X355600Y457200D03*
X355600Y482600D03*
X355600Y508000D03*
X355600Y533400D03*
X177800Y533400D03*
X177800Y508000D03*
X177800Y482600D03*
X177800Y457200D03*
X177800Y431800D03*
X177800Y406400D03*
X177800Y381000D03*
X177800Y355600D03*
X177800Y330200D03*
X177800Y304800D03*
X177800Y279400D03*
X177800Y254000D03*
X177800Y228600D03*
X177800Y203200D03*
X177800Y177800D03*
X177800Y152400D03*
X177800Y127000D03*
X177800Y101600D03*
X177800Y76200D03*
X177800Y50800D03*
D17*
X444500Y419100D03*
X444500Y469900D03*
D14*
X355600Y685800D03*
X330200Y685800D03*
X304800Y685800D03*
X279400Y685800D03*
X254000Y685800D03*
X228600Y685800D03*
X203200Y685800D03*
X177800Y685800D03*
D18*
X295000Y610000D03*
X135000Y480000D03*
X419100Y571500D03*
X406400Y419100D03*
X469900Y254000D03*
X381000Y88900D03*
X215900Y508000D03*
X270000Y650000D03*
X320000Y650000D03*
X65000Y560000D03*
X100000Y300000D03*
X65000Y335000D03*
X135000Y465000D03*
X270000Y195000D03*
X270000Y505000D03*
X215000Y560000D03*
X185000Y590000D03*
X150000Y590000D03*
X280000Y480000D03*
X200000Y560000D03*
X185000Y575000D03*
X145000Y535000D03*
X240000Y235000D03*
X380000Y175000D03*
X380000Y550000D03*
X75000Y105000D03*
X330000Y615000D03*
X215000Y635000D03*
X185000Y605000D03*
X135000Y590000D03*
X160000Y535000D03*
X340000Y600000D03*
X280000Y430000D03*
X275000Y95000D03*
X240000Y250000D03*
X250000Y85000D03*
X105000Y60000D03*
X225000Y340000D03*
X290000Y250000D03*
X340000Y45000D03*
X365000Y700000D03*
X230000Y200000D03*
X440000Y585000D03*
X410000Y640000D03*
X125000Y150000D03*
X110000Y755000D03*
M02*
